<?xml version="1.0" encoding="UTF-8"?>
<svg width="469px" height="282px" viewBox="0 0 469 282" version="1.1" xmlns="http://www.w3.org/2000/svg" xmlns:xlink="http://www.w3.org/1999/xlink">
    <!-- Generator: Sketch 52.4 (67378) - http://www.bohemiancoding.com/sketch -->
    <title>SVG Layer</title>
    <desc>Created with Sketch.</desc>
    <g id="Page-1" stroke="none" stroke-width="1" fill="none" fill-rule="evenodd">
        <g id="SVG-Layer" transform="translate(0.000000, -1.000000)" fill="#000000" fill-rule="nonzero">
            <g id="Logo">
                <path d="M117.091,136.368 C115.7,164.678 101.162,199.074 78.762,212.133 C56.362,225.192 10.132,211.007 1.12,161.623 C-7.892,112.239 40.084,65.735 51.243,59.632 C62.402,53.529 66.007,50.068 83.676,49.919 C101.345,49.77 116.867,53.475 116.108,69.346 C115.349,85.217 89.187,77.337 75.808,90.715 C75.808,90.715 49.981,107.276 39.444,148.024 C28.907,188.772 55.395,197.404 72.269,185.439 C89.143,173.474 99.717,132.203 99.396,115.97 C99.075,99.737 95.743,97.309 96.447,95.57 C97.151,93.831 118.482,108.059 117.091,136.368 Z M318.566,114.999 C318.566,114.999 303.244,106.507 297.927,130.54 C294.567,145.725 312.887,155.894 305.789,181.051 C298.691,206.208 280.889,200.424 271.389,196.592 C261.889,192.76 252.063,176.392 260.578,180.08 C269.093,183.768 273.469,183.438 280.234,179.108 C286.999,174.778 275.32,149.967 275.32,149.967 C266.864,158.06 237.974,174.252 237.974,174.252 C255.774,261.516 221.266,271.385 221.266,271.385 C221.266,271.385 222.883,278.95 206.524,274.299 C190.165,269.648 186.206,252.093 188.834,217.961 C191.462,183.829 198.662,148.024 198.662,148.024 C193.992,151.866 166.229,159.681 166.229,159.681 C176.77,189.82 176.6,244.637 169.177,262.644 C161.754,280.651 146.577,277.214 146.577,277.214 C131.001,288.887 120.067,279.323 116.11,267.5 C112.153,255.677 113.453,232.6 122.01,164.537 C130.567,96.474 153.456,37.291 153.456,37.291 C157.547,27.504 163.284,27.578 163.284,27.578 C163.284,27.578 178.103,18.231 184.905,22.721 C191.707,27.211 181.617,46.874 170.163,88.773 C158.709,130.672 158.993,147.61 161.318,148.024 C163.643,148.438 201.613,133.454 201.613,133.454 C201.613,133.454 215.789,57.811 230.113,41.177 C244.437,24.543 258.536,33.528 259.597,35.349 C260.658,37.17 254.018,44.984 245.838,77.116 C237.658,109.248 230.113,164.537 230.113,164.537 C237.813,165.664 274.34,139.282 274.34,139.282 C268.887,102.032 308.497,102.147 316.6,107.228 C324.703,112.309 318.566,114.999 318.566,114.999 Z M152.472,173.28 C152.472,173.28 145.872,204.092 143.627,221.847 C141.382,239.602 144.094,263.397 146.575,262.647 C149.056,261.897 152.493,255.947 156.403,231.564 C160.313,207.181 152.472,173.28 152.472,173.28 Z M225.199,185.908 C222.526,185.155 223.199,197.123 222.251,206.308 C221.303,215.493 218.32,255.848 218.32,255.848 C223.746,261.008 228.975,231.476 230.113,222.821 C231.251,214.166 227.872,186.659 225.199,185.908 Z M468.525,101.094 C468.115,102.84 467.925,102.679 466.602,102.994 C463.367,103.774 439.451,83.911 439.451,83.911 C439.451,83.911 431.513,150.365 428.64,170.36 C425.767,190.355 427.44,224.465 411.932,211.16 C396.424,197.855 401.649,188.152 401.121,166.478 C401.121,166.478 381.249,196.094 358.861,198.532 C336.379,200.981 320.787,195.932 319.549,165.507 C319.549,165.507 321.066,129.307 351.981,116.939 C381.058,105.304 383.431,121.797 383.431,121.797 C383.431,121.797 385.931,133.138 374.586,146.08 C365.161,156.831 351.612,158.16 338.931,156.532 C338.931,156.532 333.163,166.757 342.153,174.25 C351.143,181.743 371.796,187.199 404.07,143.166 C404.07,143.166 408.551,91.135 408.984,83.914 C408.984,83.914 390.692,93.749 387.665,94.667 C383.79,95.842 382.248,96.02 382.165,93.934 C382.118,92.683 395.155,77.021 405.6,64.682 C409.983,59.099 414.836,53.002 414.851,52.746 C414.851,52.746 402.984,61.346 400.082,62.595 C396.457,64.16 395.246,65.324 395.168,63.237 C395.09,61.15 424.856,15.961 424.856,15.961 C424.856,15.961 427.892,11.312 431.325,6.323 C432.437715,4.57682458 433.720282,2.94489335 435.154,1.451 C436.931,-0.371 440.737,3.497 443.294,9.538 C443.294,9.538 465.944,60.424 465.93,61.62 C465.916,62.816 467.671,64.153 466.903,65.754 C466.066,67.499 464.931,67.376 463.669,67.361 C460.34,67.319 442.645,48.086 442.645,48.086 C442.645,48.086 447.366,57.608 450.753,64.686 C458.336,78.936 467.588,96.467 467.58,97.173 C467.57,98.368 468.931,99.366 468.525,101.094 Z M344.119,146.082 C376.437,139.342 369.966,123.369 358.861,127.626 C347.756,131.883 344.119,146.082 344.119,146.082 Z" id="Offset"></path>
                <path d="M276.462,274.355 L299.317,274.355 L299.317,280.446 L269.922,280.446 L269.922,232.231 L298.613,232.231 L298.613,238.318 L276.462,238.318 L276.462,253.718 L295.8,253.718 L295.8,259.806 L276.462,259.806 L276.462,274.355 Z M332.762,247.765 L339.091,247.765 L339.091,280.446 L332.762,280.446 L332.762,275.408 C330.582,279.117 325.8,281.146 321.23,281.146 C312.23,281.146 304.563,274.428 304.563,264.072 C304.563,253.646 312.228,247.072 321.23,247.072 C325.8,247.072 330.582,248.962 332.762,252.672 L332.762,247.765 Z M332.692,263.999 C332.692,256.999 327.066,253.293 321.792,253.293 C318.924494,253.19251 316.144292,254.288738 314.117027,256.319227 C312.089761,258.349717 310.997953,261.131657 311.103,263.999 C311.002573,266.884185 312.088864,269.684486 314.108673,271.74719 C316.128483,273.809894 318.905341,274.954784 321.792,274.915 C327.63,274.915 332.693,270.927 332.693,263.999 L332.692,263.999 Z M357.092,255.112 L357.092,247.765 L350.692,247.765 L350.692,280.446 L357.092,280.446 L357.092,268.546 C357.092,259.87 359.764,253.152 366.092,253.152 C367.772178,253.165339 369.428904,253.547687 370.945,254.272 L371.929,248.324 C370.1588,247.449378 368.202922,247.017026 366.229,247.064 C361.943,247.065 358.779,249.374 357.091,255.112 L357.092,255.112 Z M385.922,235.449 L379.522,235.449 L379.522,247.765 L373.615,247.765 L373.615,253.153 L379.522,253.153 L379.522,280.446 L385.922,280.446 L385.922,253.156 L392.884,253.156 L392.884,247.768 L385.922,247.768 L385.922,235.449 Z M417.729,247.065 C414.143,247.065 408.869,248.745 406.9,252.665 L406.9,229.991 L400.5,229.991 L400.5,280.446 L406.9,280.446 L406.9,262.81 C406.9,255.81 412.385,253.293 416.885,253.293 C421.385,253.293 424.621,256.582 424.621,261.97 L424.621,280.446 L431.021,280.446 L431.021,261.546 C431.09,252.383 425.956,247.065 417.728,247.065 L417.729,247.065 Z" id="Earth"></path>
            </g>
        </g>
    </g>
</svg>